<svg xmlns="http://www.w3.org/2000/svg" xmlns:xlink="http://www.w3.org/1999/xlink" viewBox="0 0 500 500" xmlns:v="https://vecta.io/nano"><style><![CDATA[.B{fill:#263238}.C{opacity:.2}.D{fill:#e0e0e0}.E{fill:#ff725e}.F{opacity:.3}.G{fill:#455a64}.H{fill:#ebebeb}.I{fill:#fafafa}.J{fill:#ffbf9d}.K{fill:#ff9a6c}]]></style><path d="M431.234 314.415H358.97v-55.736h72.264z" class="H"/><path d="M372.844 309.551h-8.708v-9.843h8.708z" fill="#fff"/><path d="M400.98 258.823h8.208v11.893h-8.208zm0 43.534h8.208v11.893h-8.208z" class="I"/><path d="M377.007 314.799c-.127 0-.23-12.259-.23-27.377l.23-27.379c.127 0 .23 12.256.23 27.379l-.23 27.377z" class="D"/><path d="M454.18 410.398H329.496v-96.167H454.18z" class="H"/><path d="M353.433 402.006h-15.024v-16.984h15.024z" fill="#fff"/><path d="M401.98 314.479h14.163v20.52H401.98zm0 75.114h14.163v20.52H401.98z" class="I"/><path d="M360.617 411.06c-.22 0-.398-21.151-.398-47.236l.398-47.241c.22 0 .397 21.146.397 47.241l-.397 47.236z" class="D"/><path d="M450.219 114.211l6.679 13.533 14.935 2.171-10.807 10.534 2.551 14.875-13.358-7.023-13.358 7.023 2.551-14.875-10.807-10.534 14.935-2.171zM52.509 288.967l4.21 8.529 9.412 1.368-6.811 6.639 1.608 9.374-8.419-4.426-8.418 4.426 1.607-9.374-6.81-6.639 9.412-1.368zm5.223-74.306l9.347 18.94 20.901 3.037-15.124 14.742 3.57 20.816-18.694-9.828-18.694 9.828 3.571-20.816-15.124-14.742 20.9-3.037zm386.539-39.337l4.029 8.163 9.008 1.309-6.518 6.354 1.539 8.972-8.058-4.236-8.057 4.236 1.539-8.972-6.519-6.354 9.008-1.309zM312.049 43.068l4.028 8.163 9.009 1.309-6.519 6.355 1.539 8.972-8.057-4.236-8.058 4.236 1.539-8.972-6.518-6.355 9.008-1.309zm92.175 87.341l2.637 5.343 5.896.857-4.267 4.159 1.007 5.872-5.273-2.773-5.274 2.773 1.007-5.872-4.266-4.159 5.896-.857zm-243.3 269.699l5.136 10.406 11.484 1.669-8.31 8.1 1.962 11.438-10.272-5.4-10.272 5.4 1.962-11.438-8.31-8.1 11.484-1.669zm13.557-10.344l2.122 4.3 4.745.689-3.433 3.347.81 4.726-4.244-2.232-4.244 2.232.811-4.726-3.433-3.347 4.744-.689z" class="H"/><path d="M364.135 349.92l4.516 9.15 10.097 1.467-7.306 7.122 1.725 10.057-9.032-4.749-9.031 4.749 1.725-10.057-7.306-7.122 10.097-1.467zm21.543-8.109l2.128 4.311 4.758.692-3.443 3.356.813 4.738-4.256-2.237-4.255 2.237.812-4.738-3.443-3.356 4.758-.692z" class="E"/><path d="M357.442 103.66l3.531-11.059c-2.749-5.513-4.055-11.828-3.459-18.41 1.712-18.931 18.468-32.887 37.424-31.172s32.937 18.45 31.225 37.381-18.468 32.886-37.425 31.172c-7.916-.716-14.435-3.582-19.835-8.602h0l-11.461.69z" class="I"/><path d="M357.442 103.66l.763-.064 2.204-.158 8.487-.581.048-.003.036.033c3.257 3.007 8.23 6.344 14.956 7.766 1.668.358 3.427.637 5.261.751l2.8.105c.948-.007 1.91-.106 2.888-.156 3.895-.362 7.981-1.41 11.902-3.326 3.918-1.907 7.663-4.677 10.794-8.251 3.123-3.568 5.661-7.932 7.075-12.821 1.406-4.881 1.763-10.232.85-15.51-.158-1.334-.579-2.619-.914-3.931-.146-.663-.427-1.285-.656-1.926l-.731-1.911c-1.176-2.464-2.469-4.931-4.228-7.102-.795-1.146-1.781-2.126-2.707-3.147-.444-.53-.998-.947-1.497-1.418-.517-.45-1.004-.935-1.543-1.353l-1.644-1.213-.82-.603-.871-.521-1.735-1.038c-.584-.332-1.208-.585-1.807-.881-4.837-2.269-10.085-3.371-15.159-3.261-5.077.1-9.954 1.338-14.22 3.4-4.275 2.058-7.939 4.923-10.821 8.184a34.24 34.24 0 0 0-6.376 10.568l-.491 1.371c-.173.451-.324.903-.422 1.369l-.676 2.717c-.245 1.818-.579 3.565-.614 5.275a34.26 34.26 0 0 0 3.5 16.526l.021.042-.014.043-2.683 8.173-.704 2.12-.252.732s.061-.228.203-.698l.646-2.105 2.574-8.291.007.085a34.26 34.26 0 0 1-3.643-16.64c.026-1.727.354-3.494.595-5.333l.671-2.75c.097-.471.248-.93.421-1.386l.492-1.389c1.383-3.703 3.5-7.407 6.418-10.72 2.909-3.311 6.615-6.224 10.944-8.32a34.79 34.79 0 0 1 14.417-3.472c5.147-.118 10.474.993 15.386 3.294.608.299 1.241.556 1.834.893l1.763 1.052.885.529.833.611 1.67 1.231c.547.424 1.042.916 1.567 1.373.506.478 1.068.901 1.52 1.439.94 1.036 1.94 2.032 2.748 3.195 1.784 2.205 3.099 4.708 4.29 7.211.267.64.494 1.296.742 1.941.233.65.517 1.282.665 1.955.34 1.331.765 2.637.926 3.991a35.3 35.3 0 0 1-.879 15.739c-1.442 4.959-4.024 9.382-7.198 12.993a34.86 34.86 0 0 1-10.958 8.334 34.76 34.76 0 0 1-12.059 3.326c-.989.047-1.963.143-2.921.145l-2.83-.119c-1.851-.124-3.624-.414-5.307-.784-6.786-1.471-11.788-4.88-15.035-7.938l.083.03-8.574.448-2.175.106-.721.024z" class="B"/><path d="M372.306 75.996l5.672-4.911 9.553 9.804 21.417-17.836 4.533 5.644-27.439 22.343z" class="E"/><path d="M298.111 349.494L106.349 392.23c-4.655 1.037-9.269-1.895-10.306-6.55L33.809 106.432c-1.037-4.655 1.895-9.269 6.55-10.306L232.122 53.39c4.655-1.037 9.269 1.895 10.306 6.55l62.233 279.249c1.038 4.654-1.895 9.268-6.55 10.305z" class="D"/><path d="M298.111 349.494l.636-.187c.421-.125 1.037-.364 1.797-.783a8.89 8.89 0 0 0 2.423-2.11 8.68 8.68 0 0 0 1.753-4.049c.144-.833.127-1.74-.021-2.67l-.631-2.924-1.504-6.702-3.747-16.725-23.825-106.602-16.432-73.619-9.151-41.013-4.785-21.448-2.454-10.937c-.436-1.793-1.521-3.405-2.967-4.557-1.467-1.126-3.303-1.797-5.171-1.79-.936-.004-1.845.18-2.783.401l-2.803.625-5.631 1.256-11.362 2.534-23.112 5.154-47.67 10.629L40.425 96.322c-2.102.461-3.996 1.753-5.182 3.539a8.4 8.4 0 0 0-1.304 6.115l2.821 12.757 5.631 25.269 11.007 49.403L74.2 286.8l18.815 84.514 2.19 9.84 1.097 4.844c.405 1.569 1.293 2.992 2.477 4.07s2.679 1.801 4.243 2.08c.785.131 1.582.15 2.369.074.779-.103 1.564-.294 2.348-.468l9.307-2.071 35.331-7.86 106.625-23.695 28.993-6.422 7.542-1.66 2.574-.552-2.563.593-7.533 1.7-28.977 6.497-106.596 23.823-35.325 7.886-9.305 2.077-2.382.475c-.818.08-1.646.061-2.462-.075-1.626-.289-3.176-1.035-4.41-2.158s-2.155-2.599-2.577-4.229l-1.103-4.857-2.196-9.839-18.852-84.505-20.825-93.39-11.013-49.402-5.632-25.269-2.825-12.776c-.393-2.205.109-4.555 1.368-6.415 1.243-1.873 3.234-3.23 5.436-3.712l100.248-22.337 47.673-10.619 23.114-5.148 11.363-2.531 5.631-1.254 2.803-.624c.92-.217 1.894-.415 2.868-.409 1.953-.007 3.872.695 5.403 1.872 1.512 1.203 2.644 2.89 3.099 4.762l2.452 10.949 4.776 21.45 9.131 41.018 16.383 73.63 23.696 106.63 3.71 16.734 1.484 6.706.622 2.932c.146.94.159 1.857.011 2.698-.262 1.69-.987 3.068-1.786 4.076-.815 1.009-1.7 1.669-2.452 2.107-.767.415-1.388.648-1.812.767l-.645.167z" class="B"/><g class="F"><path d="M116.073 382.344l174.721-39.941-5.528-34.247-9.902-19.189-167.14 65.651z"/></g><g class="F"><path d="M189.016 63.631l6.609 10.913 1.289 5.782-4.487 1z"/></g><path d="M43.764 108.05l60.617 272.002 190.011-42.346-10.839-48.637-49.779-223.364z" fill="#fff"/><g class="B"><path d="M43.764 108.05l189.974-42.51.165-.037.037.165 60.652 271.971.005.022.046.204-.204.046-190.014 42.327-.187.042-.041-.186L43.764 108.05l60.804 271.96-.228-.145 190.006-42.364-.159.25-.005-.022-60.573-271.988.202.128L43.764 108.05z"/><path d="M193.452 83.535l-96.14 21.426-4.838-21.711c-.76-3.41 1.388-6.79 4.798-7.55l83.792-18.674c3.41-.76 6.79 1.388 7.55 4.798l4.838 21.711z"/><path d="M149.066 53.15l-24.47 5.453 7.535 20.337 18.431-4.108z"/></g><path d="M181.062 57.027c.025.111-18.713 4.382-41.847 9.538L97.274 75.7c-.025-.111 18.709-4.381 41.851-9.539l41.937-9.134zm-82.6 42.956c-.111.025-1.081-3.899-2.165-8.764l-1.762-8.855c.111-.025 1.081 3.899 2.165 8.765l1.762 8.854zm90.411-22.339c-.112.025-1-3.536-1.984-7.953l-1.581-8.043c.111-.025 1 3.535 1.984 7.954l1.581 8.042zm-3.81 4.742c.025.112-19.21 4.493-42.957 9.785l-43.051 9.382c-.025-.111 19.206-4.492 42.961-9.786l43.047-9.381z" class="G"/><g class="B"><path d="M134.45 161.514c.025.113-12.948 3.1-28.972 6.671l-29.066 6.263c-.025-.113 12.945-3.099 28.975-6.672l29.063-6.262zm96.713-10.892c.025.113-33.873 7.763-75.703 17.086l-75.802 16.679c-.025-.113 33.866-7.762 75.711-17.087l75.794-16.678z"/><use xlink:href="#B"/><path d="M235.33 169.318c.025.113-33.873 7.763-75.703 17.086l-75.802 16.678c-.025-.113 33.866-7.762 75.711-17.087l75.794-16.677zm2.083 9.348c.025.113-33.873 7.764-75.703 17.086L85.908 212.43c-.025-.113 33.866-7.762 75.711-17.087l75.794-16.677z"/><use xlink:href="#B" x="6.249" y="28.044"/><path d="M117.372 253.814a2.27 2.27 0 0 1-.091-.316l-.22-.891-.793-3.342-2.728-11.814.216.137-16.395 3.683a5.31 5.31 0 0 1 .158-.247l.001.004.002.009.004.018.008.035.016.07.031.14.063.281.125.56.247 1.112.487 2.193.94 4.241 1.704 7.742-.216-.137 11.855-2.547 3.362-.701.9-.179.324-.051s-.086.033-.277.083l-.856.212-3.302.784-11.927 2.753-.176.041-.04-.178-1.745-7.733-.95-4.239-.49-2.193-.248-1.112-.125-.56-.063-.281-.031-.141-.016-.07-.008-.035-.004-.018-.002-.009-.001-.004c-.142.222.192-.308.16-.253l16.407-3.628.178-.039.038.177 2.572 11.967.692 3.323.171.866.043.287z"/></g><path d="M124.867 238.88l114.416-25.495 2.127 9.545-114.416 25.495z" class="D"/><path d="M123.713 282.265a2.27 2.27 0 0 1-.091-.316l-.22-.891-.793-3.342-2.728-11.814.216.137-16.395 3.683c-.037.054.299-.472.158-.247l.001.004.002.009.004.018.008.035.016.07.031.141.063.281.125.56.248 1.112.487 2.193.94 4.241 1.704 7.742-.216-.137 11.855-2.547 3.362-.701.9-.179a2.27 2.27 0 0 1 .323-.052c.008.005-.086.033-.277.083l-.856.212-3.302.785-11.928 2.753-.176.041-.04-.178-1.745-7.733-.95-4.239-.49-2.193-.248-1.112-.125-.56-.063-.281-.031-.141-.016-.07-.008-.035-.004-.018-.002-.009-.001-.004c-.142.222.192-.308.16-.253l16.407-3.627.178-.04.038.177 2.573 11.967.692 3.323.171.866.043.286z" class="B"/><path d="M131.208 267.333l114.416-25.495 2.127 9.545-114.416 25.495z" class="D"/><path d="M130.053 310.717a2.27 2.27 0 0 1-.091-.316l-.22-.891-.793-3.342-2.728-11.814.216.137-16.395 3.683c-.037.054.3-.471.158-.247l.001.005.002.009.004.018.008.035.016.07.031.141.063.281.125.56.247 1.112.487 2.193.939 4.241 1.704 7.742-.216-.137 11.855-2.548 3.363-.701.9-.179.324-.052s-.086.033-.277.083l-.856.213-3.302.784-11.927 2.753-.176.041-.04-.178-1.745-7.733-.95-4.239-.49-2.193-.248-1.112-.125-.56-.063-.281-.031-.141-.016-.07-.008-.035-.004-.018-.002-.009-.001-.004c-.142.222.192-.308.16-.253l16.407-3.628.178-.039.038.177 2.572 11.967.692 3.323.171.866.043.286z" class="B"/><path d="M137.549 295.787l114.416-25.495 2.127 9.545-114.416 25.495z" class="D"/><path d="M101.615 247.935l1.718-2.703 5.109 2.839 6.574-9.918 2.545 1.753-8.485 12.499zm6.129 27.5l1.718-2.703 5.108 2.839 6.575-9.918 2.545 1.753-8.485 12.499zm6.284 28.196l1.718-2.703 5.108 2.839 6.574-9.918 2.546 1.753-8.486 12.499z" class="E"/><g class="B"><path d="M166.396 339.014c.025.113-9.635 2.362-21.573 5.022l-21.666 4.614c-.025-.113 9.632-2.361 21.575-5.023l21.664-4.613zm21.545-5.15c.025.113-3.529 1.001-7.937 1.983l-8.029 1.575c-.025-.113 3.528-1.001 7.938-1.984l8.028-1.574zm71.34-22.455c.025.113-8.667 2.146-19.411 4.54l-19.504 4.132c-.025-.113 8.665-2.146 19.413-4.541l19.502-4.131zm-9.289 26.324c-.024-.008.085-.274.191-.796.116-.521.122-1.326-.121-2.31-.251-.985-.766-2.124-1.383-3.442-.59-1.313-1.356-2.87-1.369-4.768.028-1.863.849-3.932 2.535-5.383 1.665-1.479 4.276-2.001 6.645-1.239 1.179.384 2.317 1.051 3.163 2.077.404.523.728 1.151.751 1.872.063.735-.5 1.465-1.173 1.69-.665.255-1.314.331-1.968.488l-1.986.409-4.093.691c-2.777.372-5.567.423-8.181.047-1.278-.135-2.628-.156-3.591.585-.96.733-1.447 1.924-2.164 2.923-.353.504-.804.986-1.395 1.246-.583.27-1.262.263-1.834.077-1.154-.389-2.002-1.162-2.918-1.682-.453-.265-.925-.484-1.407-.532s-.959.071-1.34.339c-.773.549-1.182 1.459-1.694 2.22-1.012 1.617-2.753 2.383-4.222 2.436-1.507.074-2.73-.566-3.501-1.241a5.11 5.11 0 0 1-1.385-1.919c-.201-.506-.227-.794-.227-.794.022-.006.082.274.304.76.226.479.633 1.18 1.413 1.828.766.637 1.95 1.224 3.383 1.131 1.405-.074 3.044-.82 3.987-2.363.498-.743.885-1.682 1.758-2.324.435-.311 1.003-.458 1.558-.406s1.073.293 1.546.565c.95.538 1.81 1.292 2.853 1.631.515.162 1.079.16 1.573-.069.496-.221.899-.642 1.234-1.125.688-.95 1.16-2.176 2.239-3.019.536-.415 1.21-.629 1.874-.705s1.338-.034 1.998.032c2.611.368 5.324.313 8.086-.054l4.066-.685 1.982-.406c.648-.152 1.331-.242 1.898-.462.574-.211.956-.715.923-1.304-.013-.582-.295-1.161-.66-1.632-.769-.941-1.853-1.592-2.965-1.956-2.249-.732-4.719-.253-6.303 1.136-1.612 1.366-2.42 3.343-2.464 5.123-.009 1.802.714 3.348 1.286 4.667.595 1.324 1.097 2.489 1.327 3.5.224 1.012.19 1.84.045 2.365-.135.525-.274.778-.274.778z"/><path d="M270.667 324.931c.003.014-.177.067-.522.155l-1.514.365-5.577 1.293-18.354 4.445-18.256 4.842-5.519 1.521-1.505.4-.533.112s.171-.08.509-.193l1.483-.476 5.484-1.65c4.641-1.358 11.079-3.147 18.234-4.963s13.664-3.31 18.392-4.328l5.607-1.164 1.53-.288c.353-.06.538-.085.541-.071z"/></g><path d="M110.988 122.815l77.669-17.307 3.252 14.593-77.669 17.307z" class="D"/><path d="M262.119 342.306l25.092 132.562 22.93-42.367 43.462 25.508-46.135-129.084z" class="E"/><g class="F"><path d="M270.558 386.89c4.638.955 10.052-.685 13.343-4.09 2.286-2.365 3.811-5.578 6.694-7.162 2.588-1.422 5.779-1.219 8.625-.433s5.526 2.105 8.384 2.846c5.602 1.454 11.78.536 16.719-2.482l-7.238-20.1-33.603-4.197-16.022 19.246 3.098 16.372z"/></g><path d="M308.506 427.236c-.139.036-3.876-13.731-8.345-30.747l-7.842-30.882c.139-.036 3.875 13.728 8.346 30.75l7.841 30.879z" class="B"/><path d="M265.792 349.202l-25.093 132.561-22.93-42.367-43.462 25.509 46.135-129.084z" class="E"/><g class="F"><path d="M206.643 374.429s7.136 5.875 15.651 3.168 13.8-3.276 18.406 0 17.076 13.956 17.076 13.956l2.895-15.294-16.746-22.999-17.489 3.531-12.455 1.244-4.63 8.764-2.708 7.63z"/></g><path d="M412.904 229.537c0 9.511-12.157 17.704-13.935 26.693-1.832 9.262 6.231 21.471 2.697 29.993-3.595 8.671-17.965 11.586-23.125 19.293-5.199 7.766-2.426 22.151-9.011 28.735s-20.969 3.811-28.735 9.01c-7.707 5.16-10.622 19.529-19.293 23.125-8.522 3.534-20.731-4.529-29.993-2.697-8.989 1.778-17.182 13.935-26.693 13.935s-17.704-12.157-26.693-13.935c-9.262-1.832-21.471 6.23-29.993 2.697-8.671-3.595-11.586-17.965-19.293-23.125-7.766-5.199-22.151-2.426-28.735-9.011s-3.811-20.969-9.01-28.735c-5.159-7.707-19.529-10.622-23.125-19.293-3.534-8.522 4.529-20.731 2.697-29.993-1.778-8.989-13.935-17.182-13.935-26.693s12.157-17.704 13.935-26.693c1.832-9.262-6.231-21.471-2.697-29.993 3.595-8.671 17.965-11.586 23.125-19.293 5.199-7.766 2.426-22.151 9.011-28.735s20.969-3.811 28.735-9.01c7.707-5.16 10.622-19.529 19.293-23.125 8.522-3.534 20.731 4.529 29.993 2.697 8.989-1.778 17.182-13.935 26.693-13.935s17.704 12.157 26.693 13.935c9.262 1.832 21.471-6.23 29.993-2.697 8.671 3.595 11.586 17.965 19.293 23.125 7.766 5.199 22.151 2.426 28.735 9.01s3.811 20.969 9.01 28.735c5.159 7.707 19.529 10.622 23.125 19.293 3.534 8.522-4.529 20.731-2.697 29.993 1.778 8.99 13.935 17.183 13.935 26.694z" class="E"/><path d="M230.168 146.531c-.016.008-.108-.133-.269-.409l-.682-1.219-2.359-4.562c-1.932-3.883-4.43-9.336-6.839-15.503s-4.26-11.876-5.467-16.041c-.605-2.082-1.065-3.776-1.353-4.954l-.324-1.358c-.068-.312-.096-.478-.079-.483s.079.152.18.455l.418 1.332 1.51 4.902a255.6 255.6 0 0 0 5.6 15.959c2.403 6.152 4.841 11.615 6.685 15.533l2.208 4.629.594 1.263c.131.29.193.447.177.456zm13.178-5.012c-.035.009-.169-.384-.382-1.103l-.828-3.063c-.66-2.597-1.478-6.209-2.218-10.23s-1.257-7.691-1.562-10.353c-.153-1.331-.26-2.41-.314-3.157s-.07-1.162-.035-1.166.118.403.236 1.142l.478 3.132a328.4 328.4 0 0 0 1.709 10.307 330.93 330.93 0 0 0 2.064 10.24l.666 3.098c.153.734.221 1.144.186 1.153zm23.25-2.31c-.144.003-.514-11.214-.827-25.051l-.306-25.065c.144-.003.514 11.212.827 25.054l.306 25.062zm23.394-23.048c.137.043-1.477 5.652-3.605 12.526s-3.966 12.416-4.103 12.374 1.477-5.65 3.606-12.528 3.964-12.415 4.102-12.372zm9.55 28.986c-.017-.006.027-.169.126-.473l.456-1.319 1.801-4.806c1.563-4.042 3.811-9.59 6.369-15.685l6.688-15.553 2.106-4.679.599-1.26c.142-.286.225-.432.242-.425s-.034.168-.146.467l-.509 1.299-1.953 4.744-6.546 15.609-6.507 15.62-1.954 4.742-.547 1.284c-.132.291-.209.441-.225.435zm12.501 6.519c-.03-.02.175-.381.57-1.018l1.739-2.654a161.27 161.27 0 0 1 6.172-8.455c2.517-3.225 4.913-6.049 6.699-8.046a81.35 81.35 0 0 1 2.151-2.333c.521-.539.822-.825.849-.801s-.223.356-.697.935l-2.023 2.439-6.568 8.126a330.8 330.8 0 0 0-6.282 8.347l-1.873 2.556c-.446.601-.707.924-.737.904zm18.18 14.905c-.098-.105 7.814-7.626 17.67-16.795l18.027-16.415c.098.105-7.813 7.624-17.672 16.796l-18.025 16.414zm31.763 3.106c.032.072-1.14.659-3.014 1.642l-7.252 3.977-7.344 3.852-2.301 1.016c-.551.222-.863.329-.878.296-.032-.071 1.14-.659 3.014-1.642l7.254-3.978 7.342-3.852 2.301-1.016c.552-.221.863-.328.878-.295zm29.404 12.197c.048.136-9.371 3.575-21.034 7.681l-21.209 7.191c-.048-.136 9.369-3.574 21.036-7.682l21.207-7.19zm9.359 53.466c-.014.143-10.249-.714-22.859-1.914l-22.812-2.433c.014-.143 10.247.714 22.861 1.915l22.81 2.432zm-7.527 47.957c-.061.13-9.631-4.262-21.372-9.809l-21.151-10.28c.061-.13 9.629 4.261 21.374 9.81l21.149 10.279zm-31.48 45.628c-.11.093-7.012-7.913-15.415-17.879l-15.018-18.216c.11-.093 7.011 7.911 15.416 17.88l15.017 18.215zm-26.275 6.028c-.03.019-.326-.382-.834-1.124l-2.095-3.183c-1.738-2.707-4.069-6.494-6.523-10.746s-4.565-8.167-6.039-11.027l-1.707-3.407c-.388-.812-.588-1.268-.556-1.285s.292.409.735 1.191l1.852 3.327 6.166 10.941 6.385 10.812 1.953 3.268c.455.776.693 1.214.663 1.233zm-16.324 22.948c-.016.008-.105-.133-.26-.41l-.654-1.222-2.256-4.57c-1.843-3.889-4.211-9.352-6.464-15.524-2.247-6.177-3.949-11.883-5.04-16.046-.547-2.082-.959-3.774-1.213-4.95l-.285-1.356c-.06-.311-.082-.477-.065-.481s.074.153.167.456l.38 1.332 1.371 4.901c1.18 4.131 2.932 9.805 5.174 15.965 2.247 6.157 4.555 11.627 6.309 15.549l2.104 4.635.566 1.264c.124.292.182.449.166.457zm-33.062-16.088c-.077.004-.2-1.331-.432-3.482l-1.137-8.369-1.649-8.285-.725-3.433c.035-.01.157.304.349.88l.733 2.464c.575 2.093 1.257 5.019 1.806 8.288l.99 8.423.109 2.568c.005.608-.008.944-.044.946zm-21.628 28.786c-.018 0-.033-.177-.044-.513l-.023-1.47.037-5.406c.076-4.565.285-10.869.651-17.824l1.177-17.799.482-5.384.164-1.461c.043-.334.076-.508.094-.506s.021.179.011.515l-.067 1.469-.317 5.395-1.024 17.8-.803 17.807-.202 5.4-.074 1.468c-.023.333-.044.509-.062.509zm-17.581-50.365c.069.013-.039.988-.3 2.552l-1.232 6.067-1.592 5.984-.865 2.419c-.071-.02.141-.978.51-2.515l1.44-6.006 1.378-6.02.661-2.481zm-31.788-15.273c.115.087-1.844 2.863-4.375 6.2l-4.79 5.885c-.115-.087 1.844-2.862 4.376-6.2l4.789-5.885zm-16.676-11.204c.108.095-6.097 7.382-13.859 16.274l-14.253 15.933c-.108-.095 6.096-7.38 13.861-16.275l14.251-15.932zm-8.345-12.402c.091.111-3.361 3.107-7.711 6.692s-7.951 6.402-8.043 6.291 3.36-3.107 7.711-6.693 7.951-6.401 8.043-6.29zm-9.763-18.714c.063.13-8.581 4.424-19.303 9.591l-19.531 9.123c-.062-.13 8.579-4.423 19.305-9.592l19.529-9.122zm-3.923-9.334c.007.035-.313.128-.898.266l-2.491.51-8.308 1.165-8.376.505c-1.074.018-1.942.015-2.543-.007s-.932-.047-.933-.083c-.001-.076 1.324-.149 3.461-.278l8.338-.655 8.301-1.01 3.449-.413zm-3.166-21.545c-.003.036-.626.02-1.75-.038l-4.756-.244a299.27 299.27 0 0 0-15.698-.348 298.58 298.58 0 0 0-15.696.516l-4.753.295-1.749.057s.613-.126 1.731-.259 2.739-.296 4.745-.461c4.012-.332 9.571-.634 15.718-.67s11.707.212 15.722.501c2.008.143 3.631.286 4.75.41s1.739.205 1.736.241zm1.964-18.923c-.039.139-6.514-1.547-14.461-3.765s-14.361-4.128-14.323-4.267 6.513 1.547 14.463 3.765 14.36 4.129 14.321 4.267zm4.185-15.865c-.006.017-.168-.02-.472-.106l-1.323-.401-4.808-1.648c-4.034-1.465-9.533-3.708-15.414-6.6-5.879-2.9-11.01-5.892-14.631-8.197-1.811-1.151-3.257-2.113-4.237-2.806l-1.124-.804c-.254-.188-.382-.295-.372-.31s.158.062.43.223l1.177.722 4.319 2.662c3.663 2.22 8.806 5.152 14.667 8.042a197.1 197.1 0 0 0 15.314 6.723l4.744 1.801 1.29.493c.295.119.446.189.44.206zm9.413-15.949c-.083.118-5.145-3.305-11.306-7.643s-11.09-7.952-11.007-8.07 5.144 3.304 11.307 7.644 11.089 7.952 11.006 8.069zm-19.895-48.608c.012-.013.142.083.379.277l1.017.871 3.683 3.264 12.113 10.807 12.163 10.755 3.676 3.272.984.907c.221.212.332.33.32.343s-.145-.077-.389-.263l-1.048-.833-3.785-3.147-12.268-10.644-12.016-10.924-3.572-3.387-.951-.943c-.212-.22-.318-.342-.306-.355zm31.195.909c.028-.023.269.225.68.692l1.684 2.026 5.161 6.993 4.646 7.348 1.277 2.304c.286.553.43.867.399.884-.066.038-.8-1.125-1.99-2.997l-4.761-7.245-5.024-7.063-2.072-2.942z" class="B"/><g class="C"><path d="M160.104 124.823l43.503 38.091 10.814-8.653-25.245-38.683s-1.934 1.423-6.961 2.859c-4.869 1.392-19.207 1.764-22.111 6.386z"/></g><g class="C"><path d="M208.528 92.601l21.245 53.172 13.573-4.253-4.523-46.117s-2.338.547-7.524-.112c-5.024-.639-17.219-5.407-22.771-2.69z"/></g><g class="F"><path d="M265.171 81.467l1.425 57.742 12.725.611 12.883-44.317c-.245-.022-3.57-.597-7.491-3.103-4.407-2.815-13.379-11.392-19.542-10.933z"/></g><g class="C"><path d="M320.65 92.376l-21.111 53.232 11.494 5.495 29.051-35.861c-.218-.115-2.971-2.408-5.517-6.487-2.768-4.437-7.486-14.602-13.917-16.379z"/></g><g class="C"><path d="M370.229 125.594l-39.322 40.977 8.764 11.81 38.42-25.643s-1.614-2.558-2.527-7.481c-.925-4.98-1.059-14.054-5.335-19.663z"/></g><g class="C"><path d="M401.268 171.852l-52.95 21.793 4.393 13.528 46.068-4.999s-.288-1.424.317-6.617c.587-5.031 5.87-16.267 2.172-23.705z"/></g><g class="C"><path d="M412.986 229.537l-57.724 2.021-.48 12.73 44.035 12.883c.019-.246.412-2.733 1.746-5.256 3.242-6.131 12.423-14.775 12.423-22.378z"/></g><g class="C"><path d="M402.353 284.121l-53.15-20.716-5.376 11.55 36.159 28.679c.113-.219 2.225-2.176 6.277-4.764 4.409-2.814 14.867-7.36 16.09-14.749z"/></g><g class="C"><path d="M324.177 283.297l-13.155 11.041c.996 1.042 18.53 30.84 29.332 49.262.149-.109.288-.236.44-.339 7.116-4.764 19.774-2.854 26.911-7.565l-43.528-52.399zm-24.174 20.884l-19.642 6.697 9.3 53.324a13.72 13.72 0 0 1 1.849-.513c9.262-1.832 21.471 6.231 29.993 2.697 1.172-.486 2.231-1.181 3.219-2.011l-24.719-60.194zm-35.867 73.416l3.139-69.661-16.982-4.302-12.636 59.978.468.076c8.773 1.736 16.789 13.353 26.011 13.909zm-42.701-81.487l-34.173 46.245c.549.273 1.077.572 1.576.906 7.707 5.16 10.622 19.53 19.293 23.125.398.165.806.297 1.219.414l31.349-59.339-19.264-11.351zm-23.029-24.202l-47.86 32.895.548.712c5.199 7.766 2.426 22.151 9.01 28.735.606.606 1.296 1.11 2.023 1.571l48.372-54.466-12.093-9.447zm-10.966-23.485l-56.585 9.139c.901 9.076-6.253 20.541-2.886 28.66.206.497.456.969.729 1.43l62.897-30.481-4.155-8.748zm-3.09-31.519l-53.491-15.437-.194 1.378c-1.778 8.989-13.935 17.182-13.935 26.693a11.8 11.8 0 0 0 .161 1.897h65.293l2.166-14.531zm-56.165-44.478l59.078 32.382 9.62-18.269-45.187-34.021-.603 1.041c-5.071 7.575-19.019 10.534-22.908 18.867z"/></g><path d="M412.904 229.537l-.063-.633c-.054-.418-.035-1.055-.264-1.86-.314-1.632-1.228-3.977-2.997-6.704-1.717-2.763-4.32-5.846-7.034-9.759-1.323-1.967-2.699-4.188-3.434-6.854s-.593-5.676-.018-8.707c.552-3.049 1.461-6.189 2.256-9.52.735-3.313 1.527-6.932.788-10.615-.393-1.819-1.257-3.554-2.485-5.061-1.241-1.502-2.8-2.764-4.447-3.947-3.319-2.355-7.132-4.241-10.785-6.698-1.816-1.234-3.62-2.608-5.103-4.362-1.499-1.749-2.47-3.93-3.125-6.186-1.286-4.547-1.569-9.414-2.546-14.275-.498-2.419-1.171-4.878-2.463-7.058-1.264-2.198-3.309-3.898-5.696-4.928-2.382-1.057-5-1.605-7.647-2.044l-8.095-1.229c-2.716-.488-5.501-1.132-8.016-2.524-2.53-1.382-4.507-3.604-6.164-5.97-1.66-2.385-3.087-4.945-4.607-7.472-1.522-2.519-3.122-5.052-5.198-7.205-2.073-2.133-4.838-3.668-7.887-3.868-3.036-.226-6.112.355-9.144 1.074-3.04.73-6.083 1.618-9.236 2.21-3.126.61-6.488.825-9.657-.181-3.122-1.084-5.875-2.977-8.533-4.927-2.662-1.959-5.263-4.046-8.115-5.778-2.837-1.676-6.076-3.073-9.445-2.695l-.625.048c-.206.035-.41.089-.615.132-.408.097-.823.172-1.227.286-.792.292-1.605.529-2.361.924-1.553.69-2.999 1.625-4.433 2.573-2.848 1.942-5.533 4.172-8.45 6.153-1.443 1.011-2.988 1.898-4.602 2.661a15.56 15.56 0 0 1-5.208 1.316c-3.62.177-7.179-.64-10.667-1.52-3.497-.876-6.995-1.88-10.603-2.226-1.8-.151-3.623-.075-5.369.361-1.759.423-3.319 1.422-4.703 2.584-2.758 2.407-4.686 5.645-6.603 8.829-1.912 3.202-3.728 6.541-6.268 9.415-1.281 1.411-2.763 2.698-4.499 3.569-1.735.852-3.585 1.422-5.457 1.864-3.759.825-7.599 1.178-11.383 1.863-3.742.68-7.636 1.744-10.411 4.433-1.335 1.371-2.27 3.087-2.956 4.89-.701 1.806-1.103 3.727-1.458 5.652-.701 3.858-1.024 7.82-1.959 11.715-.445 1.947-1.114 3.875-2.128 5.634s-2.424 3.283-4.008 4.535c-3.16 2.54-6.754 4.42-10.187 6.522-1.712 1.059-3.403 2.161-4.959 3.434-1.532 1.291-2.924 2.773-3.878 4.523-.967 1.74-1.409 3.748-1.393 5.763-.007 2.016.295 4.035.702 6.034.846 3.997 2.115 7.934 2.792 12.044.353 2.047.48 4.165.206 6.257-.269 2.099-1.08 4.094-2.089 5.929-2.083 3.655-4.803 6.859-7.214 10.262-1.218 1.693-2.342 3.458-3.225 5.336-.877 1.872-1.498 3.89-1.513 5.958.013 2.068.62 4.089 1.494 5.964.877 1.882 2.004 3.646 3.22 5.341 2.409 3.406 5.133 6.608 7.219 10.263 1.012 1.834 1.828 3.826 2.105 5.926.281 2.092.156 4.212-.197 6.26-.672 4.112-1.944 8.051-2.79 12.049-.407 1.999-.713 4.018-.71 6.035-.022 2.016.423 4.024 1.382 5.768.949 1.753 2.34 3.238 3.871 4.531 1.557 1.272 3.245 2.378 4.958 3.437 3.435 2.103 7.029 3.984 10.192 6.521 1.583 1.253 2.995 2.774 4.014 4.531s1.686 3.687 2.133 5.633c.938 3.895 1.26 7.859 1.96 11.717.354 1.926.757 3.847 1.457 5.654.686 1.803 1.616 3.523 2.953 4.894 2.772 2.694 6.667 3.759 10.409 4.44 3.785.686 7.626 1.039 11.386 1.863 1.873.441 3.722 1.011 5.458 1.862 1.736.872 3.219 2.158 4.501 3.569 2.541 2.874 4.357 6.214 6.27 9.416 1.918 3.184 3.846 6.423 6.604 8.831 1.384 1.162 2.944 2.161 4.704 2.585 1.746.436 3.57.512 5.37.361 3.608-.347 7.107-1.351 10.604-2.227 3.489-.88 7.048-1.697 10.669-1.519 1.801.137 3.575.582 5.208 1.318a31.52 31.52 0 0 1 4.602 2.662c2.917 1.982 5.602 4.212 8.451 6.154 1.434.948 2.88 1.883 4.434 2.572.756.396 1.57.632 2.362.924.405.113.819.189 1.227.286.205.043.409.098.615.132l.625.048c3.37.377 6.608-1.024 9.445-2.699 2.852-1.734 5.453-3.82 8.115-5.78 2.659-1.949 5.411-3.844 8.535-4.925 3.17-1.005 6.531-.787 9.658-.176 3.153.592 6.196 1.481 9.236 2.211 3.033.718 6.109 1.298 9.145 1.071 3.048-.205 5.813-1.74 7.884-3.876 2.075-2.154 3.675-4.688 5.196-7.207 1.52-2.527 2.947-5.086 4.607-7.472 1.659-2.365 3.637-4.586 6.169-5.966 2.516-1.39 5.302-2.031 8.017-2.519 2.728-.484 5.441-.793 8.095-1.229 2.647-.44 5.265-.988 7.646-2.047 2.386-1.032 4.43-2.735 5.692-4.934 1.29-2.181 1.962-4.639 2.459-7.059.976-4.861 1.259-9.729 2.547-14.274.654-2.256 1.628-4.436 3.129-6.184 1.484-1.753 3.288-3.126 5.105-4.359 3.654-2.456 7.466-4.343 10.784-6.698 1.647-1.183 3.204-2.447 4.445-3.948 1.227-1.508 2.089-3.244 2.48-5.063.426-1.82.316-3.677.153-5.449-.176-1.783-.575-3.495-.944-5.165-.796-3.33-1.704-6.47-2.256-9.518-.574-3.031-.712-6.037.021-8.706s2.112-4.886 3.435-6.853c2.714-3.912 5.317-6.994 7.033-9.757 1.769-2.727 2.683-5.071 2.996-6.703.229-.805.21-1.442.263-1.859l.061-.635s-.008.213-.036.634c-.045.419-.017 1.059-.238 1.869-.297 1.642-1.2 4.005-2.959 6.748-1.707 2.779-4.301 5.878-6.994 9.788-1.312 1.965-2.673 4.18-3.39 6.812s-.574 5.607.006 8.624c.557 3.033 1.471 6.166 2.276 9.502.373 1.675.777 3.392.96 5.191.168 1.788.285 3.666-.145 5.526-.395 1.858-1.276 3.64-2.523 5.176-1.26 1.53-2.833 2.81-4.49 4.004-3.337 2.376-7.151 4.271-10.778 6.719-1.803 1.228-3.585 2.591-5.036 4.311-1.465 1.711-2.415 3.843-3.06 6.077-1.27 4.499-1.548 9.36-2.522 14.254-.498 2.437-1.172 4.929-2.491 7.167-1.289 2.258-3.41 4.028-5.842 5.08-2.429 1.083-5.072 1.637-7.73 2.082l-8.088 1.238c-2.7.487-5.451 1.129-7.9 2.487-2.458 1.342-4.392 3.51-6.035 5.857-1.643 2.364-3.065 4.918-4.586 7.453-1.524 2.528-3.132 5.085-5.247 7.286-2.102 2.184-4.997 3.794-8.134 4.003-3.118.236-6.23-.355-9.278-1.073-3.053-.731-6.093-1.615-9.216-2.199-3.103-.604-6.383-.804-9.446.169-3.037 1.053-5.762 2.922-8.409 4.868-2.653 1.955-5.259 4.05-8.146 5.808-.744.402-1.454.868-2.239 1.203-.387.176-.767.371-1.161.533l-1.21.429c-1.63.495-3.374.828-5.106.602l-.65-.051c-.214-.034-.424-.091-.636-.135-.422-.099-.851-.178-1.269-.295-.813-.298-1.652-.543-2.423-.945-1.589-.705-3.052-1.651-4.501-2.607-2.872-1.956-5.562-4.187-8.454-6.149-1.432-1.003-2.953-1.873-4.532-2.62-1.596-.717-3.299-1.141-5.048-1.275-3.52-.172-7.043.63-10.523 1.511-3.488.874-7.003 1.889-10.679 2.244-1.836.154-3.716.081-5.536-.373-1.838-.443-3.47-1.485-4.896-2.684-2.843-2.484-4.781-5.757-6.708-8.948-1.915-3.206-3.729-6.527-6.216-9.336-1.256-1.38-2.682-2.614-4.359-3.457-1.683-.824-3.496-1.384-5.343-1.819-3.715-.814-7.55-1.167-11.367-1.856-1.902-.368-3.822-.761-5.654-1.486-1.828-.707-3.592-1.687-5.023-3.092-1.402-1.437-2.365-3.223-3.069-5.071-.717-1.854-1.124-3.8-1.482-5.742-.706-3.889-1.03-7.846-1.957-11.687-.441-1.921-1.097-3.802-2.079-5.496s-2.339-3.16-3.896-4.392c-3.103-2.49-6.684-4.368-10.137-6.479-1.724-1.066-3.431-2.182-5.019-3.479-1.563-1.32-3.003-2.85-3.996-4.683-1.005-1.824-1.467-3.938-1.444-6.007-.004-2.075.309-4.128.72-6.147.855-4.033 2.123-7.968 2.785-12.024.348-2.021.465-4.089.195-6.107s-1.05-3.941-2.044-5.744c-2.048-3.591-4.762-6.787-7.189-10.216-1.224-1.706-2.368-3.495-3.267-5.422-.895-1.92-1.53-4.016-1.543-6.184.016-2.169.664-4.261 1.562-6.177.904-1.923 2.046-3.712 3.272-5.416 2.429-3.425 5.139-6.622 7.184-10.214.991-1.804 1.77-3.726 2.029-5.746.264-2.017.145-4.085-.204-6.105-.666-4.054-1.933-7.988-2.786-12.02-.41-2.019-.72-4.072-.712-6.146-.018-2.068.442-4.183 1.455-6.003.998-1.829 2.44-3.357 4.004-4.674 1.587-1.298 3.296-2.411 5.019-3.476 3.451-2.111 7.032-3.988 10.132-6.48 1.557-1.231 2.911-2.702 3.89-4.395s1.635-3.576 2.074-5.497c.924-3.84 1.249-7.796 1.955-11.684.359-1.941.766-3.887 1.484-5.74.704-1.848 1.671-3.631 3.072-5.068 1.433-1.403 3.198-2.38 5.026-3.086 1.832-.723 3.751-1.117 5.653-1.484 3.816-.689 7.649-1.041 11.364-1.856 1.847-.435 3.659-.995 5.341-1.82 1.677-.842 3.101-2.078 4.357-3.457 2.486-2.808 4.3-6.129 6.214-9.335 1.926-3.191 3.865-6.463 6.707-8.946 1.426-1.198 3.058-2.24 4.896-2.683 1.819-.454 3.699-.527 5.535-.373 3.675.355 7.19 1.37 10.677 2.244 3.48.881 7.002 1.683 10.522 1.512 1.748-.134 3.451-.557 5.047-1.274 1.578-.746 3.099-1.616 4.532-2.619 2.892-1.962 5.581-4.192 8.453-6.148 1.448-.957 2.911-1.902 4.5-2.607.771-.402 1.609-.648 2.422-.946.417-.118.846-.196 1.268-.296.212-.045.423-.1.636-.136l.65-.051c1.732-.227 3.476.106 5.106.599l1.21.429c.395.161.774.356 1.162.532.785.335 1.496.8 2.239 1.202 2.888 1.757 5.493 3.852 8.146 5.807 2.646 1.947 5.371 3.815 8.407 4.87 3.062.974 6.342.777 9.445.173 3.123-.584 6.163-1.467 9.216-2.199 3.047-.718 6.159-1.31 9.277-1.076 3.137.203 6.032 1.814 8.137 3.994 2.116 2.2 3.725 4.757 5.249 7.285 1.521 2.535 2.943 5.089 4.585 7.453 1.641 2.348 3.575 4.517 6.031 5.861 2.448 1.359 5.199 2.004 7.898 2.491 2.711.484 5.424.796 8.088 1.237 2.658.445 5.301.998 7.731 2.079 2.432 1.05 4.556 2.818 5.847 5.074 1.321 2.237 1.996 4.729 2.494 7.165.976 4.894 1.253 9.754 2.521 14.255.646 2.234 1.594 4.367 3.057 6.079 1.451 1.721 3.232 3.085 5.034 4.314 3.626 2.449 7.441 4.343 10.778 6.719 1.657 1.194 3.231 2.472 4.491 4.003 1.248 1.535 2.131 3.316 2.527 5.174.432 1.86.315 3.739.148 5.527-.182 1.799-.585 3.517-.959 5.191-.805 3.337-1.719 6.47-2.276 9.503-.58 3.017-.723 5.99-.008 8.625s2.077 4.848 3.389 6.814c2.693 3.911 5.288 7.01 6.995 9.79 1.759 2.743 2.663 5.107 2.96 6.749.221.81.193 1.45.238 1.869l.039.639zM237.042 366.958c.139.035-3.552 15.001-8.244 33.422l-8.749 33.296c-.139-.036 3.551-14.998 8.244-33.425l8.749-33.293z" class="B"/><circle cx="264.817" cy="229.537" r="90.776" fill="#fff"/><path d="M208.922 198.083c-1.252 1.252-8.136 13.768-8.762 24.094s.858 68.318.858 68.318l.268 3.843c16.343 19.111 75.739 47.549 129.242-.096h0l2.998-35.668-8.828-75.51-30.665-7.51-7.191-11.655-47.925 11.22-4.274 10.105-25.721 12.859z" class="G"/><path d="M283.518 133.536c2.11-7.845 4.186-15.746 4.916-23.837s.054-16.451-3.164-23.91c-.488-1.131-4.539-8.676-5.757-8.493-.871.132 1.751 7.23 1.348 8.013-3.848 7.467-4.546 16.245-3.441 24.571s3.232 15.761 6.098 23.656" class="B"/><path d="M282.723 102.542c-.387-20.37-12.564-37.123-32.915-36.172l-1.876.197c-18.875 1.99-33.065 18.135-32.599 37.11.433 17.653 1.139 37.153 2.245 46.532 2.289 19.415 22.053 20.389 22.053 20.389.044-.002.906 12.769.906 12.769l8.352 9.073 38.711-23.977-4.877-65.921z" class="J"/><path d="M239.631 170.748s12.33-.573 24.524-10.152c0 0-4.084 17.61-23.668 17.904l-.856-7.752z" class="K"/><path d="M226.516 119.513c.102 1.471 1.434 2.598 2.972 2.519s2.701-1.333 2.598-2.805-1.433-2.6-2.969-2.521-2.704 1.336-2.601 2.807zm-6.177-8.205c.382.326 2.321-1.453 5.31-1.76 2.98-.35 5.335.956 5.621.556.142-.178-.278-.795-1.305-1.39-1.013-.593-2.687-1.097-4.547-.893s-3.353 1.056-4.179 1.853c-.845.802-1.087 1.49-.9 1.634zm32.57 5.963c.103 1.471 1.434 2.598 2.973 2.519s2.701-1.333 2.598-2.805-1.434-2.599-2.97-2.521-2.703 1.336-2.601 2.807zm-3.179-7.839c.383.325 2.325-1.453 5.312-1.76 2.98-.349 5.335.956 5.621.556.141-.179-.274-.795-1.306-1.389-1.012-.594-2.687-1.098-4.547-.894s-3.353 1.057-4.179 1.853c-.842.802-1.086 1.49-.901 1.634zm-8.297 24.087c-.004-.171-1.895-.297-4.945-.364-.771.002-1.509-.074-1.693-.581-.238-.532-.005-1.388.271-2.315l1.643-6.047c2.262-8.601 3.813-15.641 3.466-15.729s-2.462 6.812-4.723 15.413l-1.545 6.072c-.197.897-.59 1.933-.08 3.036.265.549.869.903 1.372.984.505.097.935.061 1.315.043 3.046-.157 4.926-.341 4.919-.512zm9.011 1.139c-.489.023-.154 3.267-2.687 5.861-2.527 2.601-6.022 2.601-6 3.057-.023.208.836.549 2.3.435a8.13 8.13 0 0 0 5.028-2.369c1.544-1.591 2.074-3.55 2.044-4.892-.019-1.369-.466-2.134-.685-2.092zm-1.827-37.367c.38.782 3.323.082 6.872.135 3.551-.018 6.486.71 6.874-.067.17-.37-.403-1.083-1.629-1.749-1.215-.666-3.101-1.222-5.231-1.234s-4.02.529-5.242 1.183c-1.231.653-1.811 1.36-1.644 1.732zm-28.091 3.956c.597.623 2.581-.298 5.052-.592 2.46-.38 4.618-.026 5.026-.787.175-.366-.227-1.011-1.21-1.557-.97-.545-2.535-.909-4.23-.678s-3.103 1.003-3.891 1.79c-.8.788-1.013 1.517-.747 1.824z" class="B"/><path d="M282.653 117.105c.316-.178 12.942-5.359 13.918 7.977s-12.614 11.565-12.665 11.185-1.253-19.162-1.253-19.162z" class="J"/><path d="M287.61 130.917c.055-.047.245.145.65.296.396.148 1.063.22 1.739-.091 1.371-.62 2.394-2.943 2.282-5.352-.055-1.216-.394-2.353-.894-3.278-.479-.946-1.16-1.581-1.878-1.656-.718-.111-1.189.35-1.324.737-.151.386-.047.646-.117.674-.035.036-.302-.202-.236-.761.036-.269.169-.595.464-.874.301-.283.762-.451 1.26-.433 1.034-.004 2.029.874 2.578 1.89.607 1.017 1.016 2.292 1.078 3.659.111 2.693-1.081 5.309-2.968 6.007-.92.314-1.723.088-2.15-.197-.437-.301-.529-.594-.484-.621z" class="K"/><path d="M222.543 81.015c-2.236-1.052 3.795-8.463 8.947-11.213 7.787-4.156 19.891-7.185 27.422-5.563 9.066 1.951 16.749 5.906 21.741 13.722s7.28 17.151 7.616 26.419c.102 2.828-.001 5.79-1.355 8.274-1.674 3.07-5.131 5.159-4.712 9.218.153 1.484-.175 3.012-1.124 4.163-2.274 2.755-5.418.506-6.949-1.852-3.27-5.038-3.998-11.257-4.641-17.228-.458-4.244-.91-8.58.027-12.745.509-2.266 1.423-4.435 1.806-6.726s.15-4.848-1.374-6.601c-.248-.285-.65-.639-1.155-1.027-3.992-3.069-9.346-3.72-13.975-1.739-7.343 3.142-19.92 7.939-23.436 5.604-5.058-3.358-6.365-5.676-6.365-5.676l-2.473 2.97z" class="B"/><path d="M208.922 198.083c-.773 1.07-11.704 4.698-15.85 11.606s-8.249 37.929-8.249 37.929l-2.639 20.421c5.2 8.226 12.174 19.116 19.575 26.797l7.163-96.753z" class="G"/><g class="F"><path d="M291.047 228.033c.46 4.162.93 8.37 2.362 12.305s3.942 7.631 7.606 9.657c1.535.849 3.266 1.409 4.55 2.603 1.38 1.283 2.075 3.144 3.324 4.555 1.453 1.641 3.545 2.555 5.611 3.286 6.114 2.165 12.137 3.199 18.62 2.966.196-2.14.21-10.002.406-12.142l-42.479-23.23z"/></g><path d="M324.699 183.063s13.783 4.076 17.819 9.947 11.193 28.626 12.661 32.846.184 14.006-2.569 21.041-7.529 13.09-15.783 14.007-21.292-3.854-24.224-6.973-4.159-10.121-4.159-10.121c3.665-.644 7.284-1.552 10.819-2.714" class="G"/><path d="M319.264 241.096c.002.006-.056.031-.172.075l-.52.187-2.06.661a73.61 73.61 0 0 1-8.043 1.925l.111-.158c.309 1.559.754 3.27 1.407 5.057.328.892.706 1.809 1.193 2.704.488.889 1.058 1.793 1.847 2.514s1.766 1.302 2.788 1.838c1.017.552 2.113 1.027 3.243 1.49 2.268.914 4.721 1.701 7.322 2.318 2.601.602 5.364 1.048 8.224 1.057.716.032 1.43-.064 2.153-.1.713-.118 1.443-.183 2.149-.384 1.43-.324 2.834-.858 4.141-1.606 2.638-1.465 4.873-3.738 6.569-6.413 1.719-2.669 2.976-5.698 3.904-8.863a50.9 50.9 0 0 0 1.592-7.333c.349-2.442.52-4.882.359-7.252-.092-1.194-.313-2.313-.716-3.423l-1.105-3.327-2.15-6.432c-1.419-4.18-2.819-8.135-4.222-11.798-1.429-3.645-2.762-7.074-4.432-9.936-.815-1.439-1.931-2.568-3.112-3.482-1.159-.94-2.362-1.689-3.505-2.35-2.299-1.307-4.389-2.234-6.108-2.954-1.723-.714-3.084-1.212-4.011-1.54l-1.055-.371c-.237-.084-.359-.129-.356-.138s.129.019.372.087l1.072.322c.939.296 2.314.764 4.053 1.452 1.736.693 3.846 1.596 6.176 2.888 1.159.654 2.38 1.398 3.568 2.344 1.201.91 2.377 2.083 3.221 3.55 1.72 2.902 3.068 6.32 4.52 9.971 1.424 3.665 2.841 7.62 4.273 11.799l2.168 6.43 1.11 3.321a13.25 13.25 0 0 1 .747 3.546c.168 2.429-.004 4.896-.355 7.365a51.87 51.87 0 0 1-1.605 7.409c-.938 3.2-2.213 6.273-3.969 8.995-1.732 2.727-4.032 5.066-6.757 6.572a15.5 15.5 0 0 1-4.273 1.647c-.729.204-1.478.271-2.211.389-.741.036-1.476.131-2.205.097-2.917-.018-5.706-.481-8.329-1.098a51.34 51.34 0 0 1-7.375-2.372c-1.139-.474-2.243-.96-3.273-1.526-1.035-.553-2.022-1.147-2.857-1.914s-1.408-1.709-1.901-2.622c-.491-.92-.865-1.852-1.19-2.758-.645-1.816-1.074-3.537-1.369-5.121l-.025-.135.136-.023a82.19 82.19 0 0 0 8.05-1.795l2.078-.592.531-.152c.121-.034.182-.048.184-.042zm25.284-7.368c-.102.024-.415-1.697-1.573-4.235a28.98 28.98 0 0 0-6.219-8.829c-1.522-1.479-3.214-2.603-4.833-3.441l-1.218-.545c-.394-.182-.81-.258-1.195-.388-.768-.281-1.524-.348-2.207-.456l-.501-.077-.48.001-.881.001c-.555-.034-1.021.067-1.406.122l-1.214.124s.408-.148 1.18-.324c.386-.087.858-.219 1.424-.213l.903-.041.494-.02.517.06c.706.086 1.49.137 2.288.407.399.124.833.197 1.241.376l1.265.541c1.68.837 3.428 1.984 4.982 3.495 3.124 3.009 5.138 6.451 6.198 9.059.272.652.507 1.246.657 1.788.164.537.321.993.384 1.385.159.775.229 1.203.194 1.21zm7.52-12.365c-.113.044-.488-1.771-2.078-4.197-1.557-2.385-4.535-5.379-8.783-6.648-4.231-1.288-8.338-.89-11.206-.615l-3.427.41c-.81.099-1.261.14-1.267.104s.434-.143 1.235-.304a60.07 60.07 0 0 1 3.414-.575c2.87-.367 7.036-.842 11.405.483 2.166.659 4.069 1.768 5.557 3.036 1.506 1.256 2.602 2.663 3.382 3.912.778 1.256 1.223 2.373 1.47 3.156s.324 1.232.298 1.238zm-10.392-14.795c-.036.17-3.629-.987-8.192-.784-4.567.155-8.056 1.591-8.106 1.424-.023-.056.812-.486 2.257-.946a22.83 22.83 0 0 1 5.828-.999c2.319-.088 4.414.191 5.888.538s2.344.71 2.325.767zm-22.299-20.065c.082.013-.117 1.406-.278 3.664s-.236 5.39.074 8.826c.283 3.305.881 6.267 1.409 8.422l-.361.116-.942-2.747c-.211-.653-.311-1.021-.276-1.034s.202.329.473.96l1.1 2.688-.361.116a45.22 45.22 0 0 1-1.561-8.474c-.313-3.473-.178-6.64.078-8.905l.397-2.67c.126-.626.213-.968.248-.962z" class="B"/><path d="M299.892 160.846s-7.154 0-8.051 8.597c-.689 6.599 0 13.006 0 15.896s-1.273 13.167-1.273 13.167-4.881 4.33-4.798 9.531c.083 5.226 3.8 6.824 3.8 6.824s-2.271 4.955 2.064 9.496c0 0-2.079 4.794-.37 8.022 1.323 2.499 4.292 3.333 4.292 3.333s-2.115 4.724 2.961 6.71c3 1.174 7.435.913 7.435.913l5.338-.103 4.705 2.596s8.051-3.51 8.258-8.258l.206-4.748s-2.271-7.845-2.477-10.322 1.858-8.464.619-11.148-5.574-4.261-5.161-8.014-.413-5.818-2.271-7.882-10.07-6.193-10.07-6.193-2.111-5.987-2.111-10.116 4.13-16.723-3.096-18.301z" class="J"/><path d="M304.712 190.827c.036.062-.724.549-1.98 1.285l-4.964 2.782-5.039 2.649-2.16.963c-.034-.063.726-.55 1.983-1.286l4.963-2.781 5.036-2.648 2.161-.964zm4.696 16.164c.021.029-.202.226-.624.559s-1.055.786-1.862 1.309c-1.612 1.048-3.958 2.329-6.704 3.384-2.749 1.049-5.352 1.662-7.251 1.959l-2.26.269c-.536.035-.834.037-.838.001-.009-.083 1.165-.243 3.031-.632a47.24 47.24 0 0 0 7.132-2.083c2.711-1.041 5.052-2.253 6.699-3.212l2.677-1.554zm6.141-5.141c.13.045-.138.963-.986 1.729-.842.773-1.781.954-1.814.821-.05-.142.715-.514 1.463-1.206.758-.679 1.2-1.407 1.337-1.344zm-2.945 19.301c.021.061-1.109.52-2.993 1.095s-4.529 1.239-7.499 1.719-5.693.676-7.661.72-3.186-.036-3.186-.101c0-.079 1.214-.128 3.168-.267l7.596-.866 7.483-1.56 3.092-.74zm6.533-1.19c-.071-.043.243-.589.549-1.531.309-.936.568-2.302.391-3.79a8.96 8.96 0 0 0-1.273-3.592l-.894-1.359c.04-.046.574.322 1.199 1.152.624.819 1.295 2.146 1.485 3.738s-.15 3.039-.563 3.981c-.412.953-.844 1.436-.894 1.401zm-6.163 15.665c.013.064-.949.335-2.542.6s-3.819.496-6.286.491-4.694-.251-6.284-.526-2.552-.551-2.539-.614c.015-.077.999.071 2.59.249a58.27 58.27 0 0 0 6.234.37c2.439.005 4.643-.164 6.235-.335l2.592-.235zm-12.696-56.362c.029.055-.324.324-.992.563s-1.657.408-2.74.281-2.009-.527-2.598-.916-.874-.733-.832-.78c.09-.13 1.451.957 3.492 1.179 2.034.264 3.613-.474 3.67-.327zm20.345 41.302c.031-.003.09.269.115.772.015.503-.05 1.234-.248 2.109s-.523 1.885-.838 3.001c-.3 1.111-.592 2.369-.374 3.641.172 1.265 1.119 2.292 1.268 3.577.169 1.264-.33 2.334-.786 3.093a10.81 10.81 0 0 1-1.291 1.683c-.341.364-.549.545-.575.523-.08-.061.687-.877 1.546-2.388.401-.753.807-1.752.631-2.842-.121-1.086-1.079-2.11-1.307-3.556-.24-1.417.098-2.741.426-3.865l.942-2.958c.5-1.685.402-2.784.491-2.79z" class="K"/><g class="B"><path d="M323.312 226.848c.034-.008.156.325.335.939l.645 2.636c.219 1.126.441 2.483.478 4.014.031 1.519-.119 3.263-.904 4.899-.805 1.612-1.964 2.875-3.074 3.915-1.125 1.033-2.229 1.846-3.176 2.493l-2.302 1.436c-.558.314-.879.466-.897.436-.044-.071 1.155-.824 2.986-2.172.911-.679 1.978-1.513 3.061-2.543 1.069-1.035 2.176-2.274 2.934-3.793.733-1.525.898-3.185.893-4.666-.009-1.49-.189-2.833-.36-3.955l-.619-3.639zm-75.456-33.285c-.023.027-.434-.282-1.158-.866l-3.03-2.508-2.076-1.751c-.371-.314-.748-.635-1.179-.847s-.91-.267-1.339-.046c-.863.451-1.439 1.559-2.176 2.478l-2.203 2.969-3.444 4.606-.647.865.205-1.058c.703-3.618 1.682-6.637 2.489-8.724l1.016-2.413.443-.831c.027.012-.08.324-.291.894l-.879 2.454c-.721 2.105-1.63 5.119-2.292 8.711l-.441-.193 3.423-4.622 2.212-2.963 1.058-1.408c.357-.459.757-.927 1.322-1.198.567-.29 1.26-.194 1.748.069.502.257.893.61 1.259.931l2.034 1.799 2.922 2.633 1.024 1.019zm42.225-8.457c.01.014-.124.134-.391.349l-1.181.921-4.406 3.315-14.713 10.829-.223.164-.15-.235-.364-.571-7.384-11.656.27.087c-3.531 1.404-6.306 2.943-8.196 4.087l-2.172 1.368-.779.472c-.014-.019.229-.223.701-.583l2.113-1.476a49.35 49.35 0 0 1 8.167-4.281l.17-.07.1.157 7.449 11.614.364.572-.373-.07 14.805-10.703 4.502-3.183 1.237-.843.454-.264zm-89.747 39.769c.018 0 .036.243.055.706l.055 2.024.139 7.443.696 24.548.544 24.565-.026 7.446-.043 2.024-.05.706s-.036-.243-.055-.706l-.055-2.024-.139-7.442-.696-24.552-.543-24.561.026-7.447.043-2.025.049-.705zm47.851 90.329c-.009.001-.026-.097-.051-.288l-.096-.849-.32-3.27c-.278-2.84-.598-6.958-.916-12.051-.328-5.093-.594-11.164-.767-17.91-.146-6.746-.183-14.166-.024-21.952.179-7.788.539-15.201.978-21.936.466-6.733.995-12.788 1.544-17.861l1.439-11.999.462-3.253.133-.844c.033-.19.054-.286.063-.285s.005.1-.01.292l-.082.851-.365 3.264-1.274 12.011c-.501 5.075-.992 11.127-1.432 17.855-.412 6.73-.757 14.136-.936 21.916-.159 7.778-.136 15.19-.017 21.93l.654 17.899.751 12.056.223 3.278.045.854c.008.192.007.291-.002.292z"/><path d="M218.389 151.516l-1.056.708-3.126 2.032c-1.373.894-2.961 2.16-4.9 3.565l-2.978 2.465-1.634 1.374-1.651 1.554c-4.545 4.231-9.708 9.911-14.464 17.363l-1.779 2.861c-.627.956-1.113 2.015-1.69 3.043-.545 1.045-1.152 2.08-1.671 3.179l-1.537 3.367c-.253.572-.537 1.136-.77 1.726l-.682 1.792-1.377 3.662c-.74 2.537-1.674 5.092-2.232 7.817-1.386 5.383-2.15 11.184-2.459 17.234-.349 6.055.012 12.392 1.052 18.837 2.105 12.868 7.182 26.268 15.812 38.179 8.518 11.947 20.557 22.339 35.015 29.169 14.426 6.872 31.308 9.842 48.167 8.095 16.884-1.749 32.699-8.395 45.367-18.11 3.194-2.403 6.126-5.075 8.944-7.801l2.029-2.119c.683-.697 1.342-1.413 1.966-2.157l1.903-2.195 1.788-2.27c4.754-6.046 8.504-12.64 11.467-19.35 2.958-6.724 4.916-13.666 6.122-20.512.62-3.424.961-6.84 1.188-10.207.107-1.684.105-3.36.162-5.019-.032-1.659-.122-3.305-.179-4.937l-.096-2.437c-.049-.807-.181-1.605-.266-2.402l-.572-4.736c-.248-1.555-.607-3.077-.9-4.595-.312-1.514-.573-3.026-1.043-4.47l-1.245-4.327c-.184-.721-.437-1.414-.706-2.099l-.771-2.053c-.533-1.352-.968-2.728-1.565-4.018l-1.786-3.819c-4.828-10.021-11.028-18.12-17.253-24.371-6.247-6.265-12.532-10.658-17.827-13.892l-3.817-2.193c-.588-.362-1.195-.641-1.777-.915l-1.684-.802-2.991-1.426c-.903-.458-1.787-.718-2.542-1.034l-3.476-1.347-1.179-.476s.408.136 1.197.426l3.497 1.3c.759.308 1.648.561 2.555 1.012l3.006 1.406 1.692.792c.586.271 1.195.547 1.787.906l3.837 2.177c5.323 3.215 11.642 7.595 17.929 13.861a89.93 89.93 0 0 1 17.378 24.415l1.801 3.831c.601 1.295 1.042 2.675 1.579 4.032l.778 2.06c.271.687.526 1.384.713 2.107l1.259 4.344c.474 1.45.739 2.968 1.055 4.489.297 1.524.66 3.053.911 4.614l.583 4.757c.087.801.221 1.602.271 2.413l.101 2.448.186 4.96c-.055 1.667-.051 3.351-.156 5.043-.223 3.383-.562 6.817-1.181 10.259-1.204 6.883-3.166 13.863-6.133 20.626-2.973 6.749-6.739 13.381-11.514 19.464l-1.797 2.284-1.912 2.208c-.627.749-1.289 1.469-1.976 2.17l-2.039 2.132c-2.831 2.743-5.779 5.431-8.99 7.849-12.734 9.775-28.641 16.464-45.622 18.223-16.954 1.758-33.934-1.234-48.439-8.151-14.537-6.875-26.635-17.333-35.187-29.351-8.665-11.982-13.752-25.457-15.849-38.39-1.036-6.478-1.389-12.844-1.028-18.925.32-6.076 1.1-11.9 2.502-17.302.567-2.735 1.51-5.299 2.259-7.843.446-1.249.935-2.465 1.391-3.673l.689-1.797c.235-.592.522-1.157.777-1.731l1.551-3.375c.523-1.102 1.135-2.139 1.685-3.186.582-1.03 1.073-2.091 1.704-3.048l1.794-2.865c4.795-7.46 9.995-13.135 14.571-17.353.571-.53 1.106-1.068 1.662-1.548l1.645-1.368c1.071-.872 2.037-1.734 2.998-2.451 1.952-1.395 3.552-2.649 4.936-3.53l3.156-1.991 1.087-.663z"/></g><defs ><path id="B" d="M233.247 159.97c.025.113-33.873 7.764-75.703 17.086l-75.802 16.678c-.025-.113 33.866-7.762 75.711-17.087l75.794-16.677z"/></defs></svg>